<?xml version="1.0" encoding="utf-8"?>
<!-- Generator: Adobe Illustrator 25.2.3, SVG Export Plug-In . SVG Version: 6.00 Build 0)  -->
<svg version="1.1" id="Layer_1" xmlns="http://www.w3.org/2000/svg" xmlns:xlink="http://www.w3.org/1999/xlink" x="0px" y="0px"
	 viewBox="0 0 1733 813" style="enable-background:new 0 0 1733 813;" xml:space="preserve">
<style type="text/css">
	.st0{fill:none;stroke:#000000;stroke-miterlimit:10;}
</style>
<path d="M154.1,72.2c4-0.8,6.3-3.6,6.3-7.9c0-5-3.3-8.1-9.7-8.1h-8.1V85h2.5V72.5h6.2h0.2l6.6,12.5h2.9L154.1,72.2z M150.6,58.4
	c5.4,0,7.3,2.6,7.3,6c0,3.6-1.9,6-6.6,6h-6.2v-12H150.6z M183.1,73.8c0-5.5-2.9-10.1-8.9-10.1c-6.1,0-9.6,4.8-9.6,10.9
	s3.5,10.9,9.9,10.9c5.5,0,7.9-3.3,8.6-6.8h-2.5c-0.7,2.7-2.1,4.8-6,4.8c-5.1,0-7.4-3.7-7.5-8.5h16V73.8z M174.2,65.6
	c4.4,0,6.3,3.3,6.5,7.4h-13.5C167.6,68.8,169.8,65.6,174.2,65.6z M194.8,83.4l-6.7-19.4h-2.5l7.6,20.9h3.3l7.6-20.9h-2.5L194.8,83.4
	z M224.6,73.8c0-5.5-2.9-10.1-8.9-10.1c-6.1,0-9.6,4.8-9.6,10.9s3.5,10.9,9.9,10.9c5.5,0,7.9-3.3,8.6-6.8h-2.5
	c-0.7,2.7-2.1,4.8-6,4.8c-5.1,0-7.4-3.7-7.5-8.5h16V73.8z M215.6,65.6c4.4,0,6.3,3.3,6.5,7.4h-13.5C209,68.8,211.3,65.6,215.6,65.6z
	 M239.1,63.6c-3.7,0-6.3,2.2-7.6,4.7v-4.2H229V85h2.5V71.3c0.7-2.6,3.3-5.6,6.9-5.6c3.1,0,4.9,1.6,4.9,6.2v13h2.5V71.5
	C245.8,65.8,243.3,63.6,239.1,63.6z M265.3,77.8c-0.7,2.6-3.3,5.6-6.9,5.6c-3.1,0-4.9-1.6-4.9-6.2v-13H251v13.5
	c0,5.6,2.6,7.8,6.8,7.8c3.7,0,6.3-2.2,7.6-4.7V85h2.5V64.1h-2.5V77.8z M290.6,73.8c0-5.5-2.9-10.1-8.9-10.1c-6.1,0-9.6,4.8-9.6,10.9
	s3.5,10.9,9.9,10.9c5.5,0,7.9-3.3,8.6-6.8h-2.5c-0.7,2.7-2.1,4.8-6,4.8c-5.1,0-7.4-3.7-7.5-8.5h16V73.8z M281.7,65.6
	c4.4,0,6.3,3.3,6.5,7.4h-13.5C275.1,68.8,277.3,65.6,281.7,65.6z"/>
<path d="M166.4,748.9l-9.7-25h-3.4v28.8h2.5v-25.1l9.8,25.3h1.7l9.7-25.3v25.1h2.5v-28.8H176L166.4,748.9z M203.8,750.6
	c-1.5,0-1.9-0.8-1.9-2.9v-8.5c0-5.6-2.2-7.9-7.7-7.9c-4.8,0-8.1,2.3-8.1,6.3h2.4c0-2.9,2.4-4.3,5.7-4.3c4.3,0,5.2,2,5.2,5.9v1.1
	l-4.8,0.2c-6.4,0.3-9.5,2.7-9.5,6.8c0,3.7,2.7,5.8,6.8,5.8c3.4,0,6.1-1.5,7.6-4.1c0.2,2.6,1.5,3.8,4.3,3.8h0.8v-2H203.8z M192.3,751
	c-3,0-4.7-1.4-4.7-4c0-3.9,3.8-4.5,7.4-4.7l4.5-0.2v2.5C199,748.4,196.1,751,192.3,751z M218,731.5c-3.6,0-6.1,2.4-7.1,4.7v-4.5
	h-2.5v20.9h2.5V739c0.7-2.7,3-5.3,6.8-5.3c0.4,0,1.3,0,2.1,0.2v-2.3C219.1,731.5,218.4,731.5,218,731.5z M241.5,752.7l-9.9-12.7
	l8.7-8.2h-3.1L226.2,742v-19.9h-2.5v30.6h2.5v-7.8l3.6-3.4l8.8,11.2H241.5z M260.9,741.4c0-5.5-2.9-10.1-8.9-10.1
	c-6.1,0-9.6,4.8-9.6,10.9c0,6.1,3.5,10.9,9.9,10.9c5.5,0,7.9-3.3,8.6-6.8h-2.5c-0.7,2.7-2.1,4.8-6,4.8c-5.1,0-7.4-3.7-7.5-8.5h16
	V741.4z M251.9,733.3c4.4,0,6.3,3.3,6.5,7.4h-13.5C245.3,736.4,247.6,733.3,251.9,733.3z M278.2,731.7h-7.6v-7.8h-2.5v7.8h-5.2v2
	h5.2v13.8c0,3.9,1.9,5.4,5.8,5.4c1.2,0,2.4-0.2,3.9-0.4v-2c-1.3,0.3-2.3,0.4-3.5,0.4c-2.5,0-3.7-0.8-3.7-3.5v-13.6h7.6V731.7z
	 M317.4,752.7l-13-15.9l12.4-12.8h-3.2l-14.8,15.5v-15.5h-2.5v28.8h2.5v-10l4-4.1l11.6,14.2H317.4z M331.5,731.3
	c-3.7,0-6.3,2.2-7.6,4.7v-4.2h-2.5v20.9h2.5v-13.7c0.7-2.6,3.3-5.6,6.9-5.6c3.1,0,4.9,1.6,4.9,6.2v13h2.5v-13.5
	C338.2,733.5,335.6,731.3,331.5,731.3z M352.1,753.1c6,0,9.8-4.6,9.8-10.9s-3.6-10.9-9.8-10.9s-9.8,4.6-9.8,10.9
	S345.9,753.1,352.1,753.1z M352.1,751.1c-4.9,0-7.3-3.8-7.3-8.9c0-5.1,2.4-8.9,7.3-8.9c4.9,0,7.2,3.8,7.2,8.9
	C359.3,747.3,357,751.1,352.1,751.1z M385.4,750.8l-5.3-19.1H377l-5.3,19.1l-5.3-19.1h-2.5l6,20.9h3.3l5.3-18.9l5.3,18.9h3.3l6-20.9
	h-2.5L385.4,750.8z M399.9,752.7v-30.6h-2.5v30.6H399.9z M423,741.4c0-5.5-2.9-10.1-8.9-10.1c-6.1,0-9.6,4.8-9.6,10.9
	c0,6.1,3.5,10.9,9.9,10.9c5.5,0,7.9-3.3,8.6-6.8h-2.5c-0.7,2.7-2.1,4.8-6,4.8c-5.1,0-7.4-3.7-7.5-8.5h16V741.4z M414,733.3
	c4.4,0,6.3,3.3,6.5,7.4H407C407.4,736.4,409.7,733.3,414,733.3z M442.7,736.1c-1.4-2.9-3.9-4.8-7.5-4.8c-5.9,0-9.1,4.8-9.1,10.9
	c0,6.1,3.3,10.9,9.1,10.9c3.5,0,6.1-2.1,7.5-5.2v4.7h2.5v-30.6h-2.5V736.1z M435.7,751.1c-4.7,0-7.1-4-7.1-8.9
	c0-4.9,2.3-8.9,7.1-8.9c4.7,0,7,4,7,8.9C442.7,746.9,440.1,751.1,435.7,751.1z M466.5,736.2c-1.3-2.9-3.8-4.9-7.5-4.9
	c-5.6,0-9.1,4.8-9.1,10.6c0,5.8,3.3,10.2,9.1,10.2c3.5,0,6.2-2,7.5-4.9v2.5c0,6-2.2,8.7-7.4,8.7c-4.5,0-6.2-2.1-6.9-4.1h-2.4
	c0.6,2.7,2.9,6,9.3,6c6.7,0,9.8-3.7,9.8-10.8v-17.8h-2.5V736.2z M459.4,750.1c-4.6,0-7-3.6-7-8.2c0-4.6,2.5-8.6,7-8.6
	c4.7,0,7.1,3.9,7.1,8.6C466.5,746.4,463.8,750.1,459.4,750.1z M491.8,741.4c0-5.5-2.9-10.1-8.9-10.1c-6.1,0-9.6,4.8-9.6,10.9
	c0,6.1,3.5,10.9,9.9,10.9c5.5,0,7.9-3.3,8.6-6.8h-2.5c-0.7,2.7-2.1,4.8-6,4.8c-5.1,0-7.4-3.7-7.5-8.5h16V741.4z M482.8,733.3
	c4.4,0,6.3,3.3,6.5,7.4h-13.5C476.2,736.4,478.5,733.3,482.8,733.3z"/>
<path d="M757.8,723.9h-8.7v28.8h8.7c9.4,0,14-6.1,14-14.5C771.9,730,767.2,723.9,757.8,723.9z M751.7,750.5v-24.4h6.1
	c7.9,0,11.4,4.9,11.4,12.1c0,7.4-3.5,12.3-11.4,12.3H751.7z M793.8,741.4c0-5.5-2.9-10.1-8.9-10.1c-6.1,0-9.6,4.8-9.6,10.9
	c0,6.1,3.5,10.9,9.9,10.9c5.5,0,7.9-3.3,8.6-6.8h-2.5c-0.7,2.7-2.1,4.8-6,4.8c-5.1,0-7.4-3.7-7.5-8.5h16V741.4z M784.8,733.3
	c4.4,0,6.3,3.3,6.5,7.4h-13.5C778.2,736.4,780.5,733.3,784.8,733.3z M821.5,731.3c-3.6,0-6.4,2.6-7.5,5.2c-0.7-3.7-2.8-5.2-6.1-5.2
	c-3.3,0-5.9,2.2-7.2,4.7v-4.2h-2.5v20.9h2.5v-13.7c0.7-2.6,3.2-5.6,6.5-5.6c3.1,0,4.6,2,4.6,6.8v12.5h2.5v-12.8V739
	c0.7-2.6,3.2-5.6,6.5-5.6c3.1,0,4.5,2,4.5,6.8v12.5h2.5v-12.8C827.9,733.7,825.6,731.3,821.5,731.3z M851,750.6
	c-1.5,0-1.9-0.8-1.9-2.9v-8.5c0-5.6-2.2-7.9-7.7-7.9c-4.8,0-8.1,2.3-8.1,6.3h2.4c0-2.9,2.4-4.3,5.7-4.3c4.3,0,5.2,2,5.2,5.9v1.1
	l-4.8,0.2c-6.4,0.3-9.5,2.7-9.5,6.8c0,3.7,2.7,5.8,6.8,5.8c3.4,0,6.1-1.5,7.6-4.1c0.2,2.6,1.5,3.8,4.3,3.8h0.8v-2H851z M839.5,751
	c-3,0-4.7-1.4-4.7-4c0-3.9,3.8-4.5,7.4-4.7l4.5-0.2v2.5C846.2,748.4,843.3,751,839.5,751z M865.8,731.3c-3.7,0-6.3,2.2-7.6,4.7v-4.2
	h-2.5v20.9h2.5v-13.7c0.7-2.6,3.3-5.6,6.9-5.6c3.1,0,5,1.6,5,6.2v13h2.5v-13.5C872.5,733.5,869.9,731.3,865.8,731.3z M893.1,736.1
	c-1.4-2.9-3.9-4.8-7.5-4.8c-5.9,0-9.1,4.8-9.1,10.9c0,6.1,3.3,10.9,9.1,10.9c3.5,0,6.1-2.1,7.5-5.2v4.7h2.5v-30.6h-2.5V736.1z
	 M886.1,751.1c-4.7,0-7.1-4-7.1-8.9c0-4.9,2.3-8.9,7.1-8.9c4.7,0,7,4,7,8.9C893.1,746.9,890.5,751.1,886.1,751.1z M936.7,752.7
	l-13-15.9l12.4-12.8h-3.2l-14.8,15.5v-15.5h-2.5v28.8h2.5v-10l4-4.1l11.6,14.2H936.7z M950.8,731.3c-3.7,0-6.3,2.2-7.6,4.7v-4.2
	h-2.5v20.9h2.5v-13.7c0.7-2.6,3.3-5.6,6.9-5.6c3.1,0,4.9,1.6,4.9,6.2v13h2.5v-13.5C957.5,733.5,954.9,731.3,950.8,731.3z
	 M971.3,753.1c6,0,9.8-4.6,9.8-10.9s-3.6-10.9-9.8-10.9s-9.8,4.6-9.8,10.9S965.2,753.1,971.3,753.1z M971.3,751.1
	c-4.9,0-7.3-3.8-7.3-8.9c0-5.1,2.4-8.9,7.3-8.9c4.9,0,7.2,3.8,7.2,8.9C978.6,747.3,976.2,751.1,971.3,751.1z M1004.7,750.8
	l-5.3-19.1h-3.1l-5.3,19.1l-5.3-19.1h-2.5l6,20.9h3.3l5.3-18.9l5.3,18.9h3.3l6-20.9h-2.5L1004.7,750.8z M1019.2,752.7v-30.6h-2.5
	v30.6H1019.2z M1042.2,741.4c0-5.5-2.9-10.1-8.9-10.1c-6.1,0-9.6,4.8-9.6,10.9c0,6.1,3.5,10.9,9.9,10.9c5.5,0,7.9-3.3,8.6-6.8h-2.4
	c-0.7,2.7-2.1,4.8-6,4.8c-5.1,0-7.4-3.7-7.5-8.5h16V741.4z M1033.3,733.3c4.4,0,6.3,3.3,6.5,7.4h-13.5
	C1026.7,736.4,1029,733.3,1033.3,733.3z M1062,736.1c-1.4-2.9-3.9-4.8-7.5-4.8c-5.9,0-9.1,4.8-9.1,10.9c0,6.1,3.3,10.9,9.1,10.9
	c3.5,0,6.1-2.1,7.5-5.2v4.7h2.5v-30.6h-2.5V736.1z M1055,751.1c-4.7,0-7.1-4-7.1-8.9c0-4.9,2.3-8.9,7.1-8.9c4.8,0,7.1,4,7.1,8.9
	C1062,746.9,1059.4,751.1,1055,751.1z M1085.8,736.2c-1.3-2.9-3.8-4.9-7.5-4.9c-5.6,0-9.1,4.8-9.1,10.6c0,5.8,3.3,10.2,9.1,10.2
	c3.5,0,6.2-2,7.5-4.9v2.5c0,6-2.2,8.7-7.4,8.7c-4.5,0-6.2-2.1-6.9-4.1h-2.4c0.7,2.7,2.9,6,9.3,6c6.7,0,9.8-3.7,9.8-10.8v-17.8h-2.5
	V736.2z M1078.7,750.1c-4.6,0-7-3.6-7-8.2c0-4.6,2.4-8.6,7-8.6c4.7,0,7.1,3.9,7.1,8.6C1085.8,746.4,1083.1,750.1,1078.7,750.1z
	 M1111.1,741.4c0-5.5-2.9-10.1-8.9-10.1c-6.1,0-9.6,4.8-9.6,10.9c0,6.1,3.5,10.9,9.9,10.9c5.5,0,7.9-3.3,8.6-6.8h-2.5
	c-0.7,2.7-2.1,4.8-6,4.8c-5.1,0-7.4-3.7-7.5-8.5h16V741.4z M1102.1,733.3c4.4,0,6.3,3.3,6.5,7.4h-13.5
	C1095.5,736.4,1097.8,733.3,1102.1,733.3z"/>
<path d="M772.6,56.2H755V85h2.5V71.9h12.6v-2.2h-12.6V58.4h15V56.2z M777.3,60.5h2.5v-6.1h-2.5V60.5z M779.7,85V64.1h-2.5V85H779.7z
	 M795.6,63.6c-3.7,0-6.3,2.2-7.6,4.7v-4.2h-2.5V85h2.5V71.3c0.7-2.6,3.3-5.6,6.9-5.6c3.1,0,5,1.6,5,6.2v13h2.5V71.5
	C802.3,65.8,799.7,63.6,795.6,63.6z M825.5,83c-1.5,0-1.9-0.8-1.9-2.9v-8.5c0-5.6-2.2-7.9-7.7-7.9c-4.8,0-8.1,2.3-8.1,6.3h2.4
	c0-2.9,2.4-4.3,5.7-4.3c4.3,0,5.2,2,5.2,5.9v1.1l-4.8,0.2c-6.4,0.3-9.5,2.7-9.5,6.8c0,3.7,2.7,5.8,6.8,5.8c3.4,0,6.1-1.5,7.6-4.1
	c0.2,2.6,1.5,3.8,4.3,3.8h0.8v-2H825.5z M813.9,83.4c-3,0-4.7-1.4-4.7-4c0-3.9,3.8-4.5,7.4-4.7l4.5-0.2v2.5
	C820.7,80.7,817.7,83.4,813.9,83.4z M840.2,63.6c-3.7,0-6.3,2.2-7.6,4.7v-4.2h-2.5V85h2.5V71.3c0.7-2.6,3.3-5.6,6.9-5.6
	c3.1,0,5,1.6,5,6.2v13h2.5V71.5C846.9,65.8,844.3,63.6,840.2,63.6z M860.9,85.4c5.9,0,8.4-4,8.9-8h-2.4c-0.5,3.4-2.5,6-6.6,6
	c-4.8,0-7.3-4.1-7.3-8.9c0-4.9,2.3-8.9,7.3-8.9c4,0,5.8,2.4,6.3,5.4h2.4c-0.4-3.9-3-7.4-8.5-7.4c-6.4,0-9.9,4.8-9.9,10.9
	S854.4,85.4,860.9,85.4z M891.3,73.8c0-5.5-2.9-10.1-8.9-10.1c-6.1,0-9.6,4.8-9.6,10.9s3.5,10.9,9.9,10.9c5.5,0,7.9-3.3,8.6-6.8
	h-2.5c-0.7,2.7-2.1,4.8-6,4.8c-5.1,0-7.4-3.7-7.5-8.5h16V73.8z M882.3,65.6c4.4,0,6.3,3.3,6.5,7.4h-13.5
	C875.7,68.8,878,65.6,882.3,65.6z"/>
<path d="M1308.2,85.4c6.4,0,10-3.1,10-8.1c0-4.5-2.7-6.6-9.5-8.3c-6.1-1.5-8-2.9-8-5.9c0-3.1,2.6-5.1,6.9-5.1c4.7,0,7.2,2.4,7.3,6.2
	h2.5c0-5.1-3.8-8.4-9.6-8.4c-5.9,0-9.5,2.9-9.5,7.5c0,4,2.7,6.2,9.4,7.8c6.1,1.4,8,2.9,8,6.3c0,3.6-2.7,5.8-7.4,5.8
	c-5.2,0-8.5-2.9-8.6-7.4h-2.5C1297.1,81.7,1301.4,85.4,1308.2,85.4z M1337.2,77.8c-0.7,2.6-3.3,5.6-6.9,5.6c-3.1,0-4.9-1.6-4.9-6.2
	v-13h-2.5v13.5c0,5.6,2.6,7.8,6.8,7.8c3.7,0,6.3-2.2,7.6-4.7V85h2.5V64.1h-2.5V77.8z M1355.3,63.6c-3.5,0-6.1,2.1-7.5,5.2v-4.7h-2.5
	v28.2h2.5V80.6c1.4,2.9,3.9,4.8,7.5,4.8c5.9,0,9.2-4.8,9.2-10.9S1361.2,63.6,1355.3,63.6z M1354.9,83.4c-4.8,0-7.1-4-7.1-8.9
	c0-4.7,2.6-8.9,7.1-8.9c4.7,0,7.1,4,7.1,8.9C1361.9,79.4,1359.6,83.4,1354.9,83.4z M1378.7,63.6c-3.5,0-6.1,2.1-7.5,5.2v-4.7h-2.5
	v28.2h2.5V80.6c1.4,2.9,3.9,4.8,7.5,4.8c5.9,0,9.2-4.8,9.2-10.9S1384.6,63.6,1378.7,63.6z M1378.3,83.4c-4.8,0-7.1-4-7.1-8.9
	c0-4.7,2.6-8.9,7.1-8.9c4.7,0,7,4,7,8.9C1385.3,79.4,1383,83.4,1378.3,83.4z M1395,85V54.4h-2.5V85H1395z M1409.2,80.9l-7.5-16.9
	h-2.6l8.8,19.6l-3.8,8.6h2.6l11.9-28.2h-2.6L1409.2,80.9z M1453.8,75.7c-0.6,4.1-4,7.5-9.4,7.5c-6.8,0-10.8-5.3-10.8-12.7
	c0-7.2,3.9-12.5,10.7-12.5c5.5,0,8.9,3.4,9.3,7.7h2.6c-0.6-5.3-4.6-9.9-11.8-9.9c-8.5,0-13.4,6.4-13.4,14.8
	c0,8.5,5.1,14.8,13.5,14.8c7.1,0,11.2-4.5,11.9-9.7H1453.8z M1471.5,63.6c-3.7,0-6.3,2.2-7.6,4.6V54.4h-2.5V85h2.5V71.3
	c0.7-2.6,3.3-5.6,6.9-5.6c3.1,0,5,1.6,5,6.2v13h2.4V71.5C1478.2,65.8,1475.7,63.6,1471.5,63.6z M1501.4,83c-1.5,0-1.9-0.8-1.9-2.9
	v-8.5c0-5.6-2.2-7.9-7.7-7.9c-4.8,0-8.1,2.3-8.1,6.3h2.4c0-2.9,2.4-4.3,5.7-4.3c4.3,0,5.2,2,5.2,5.9v1.1l-4.8,0.2
	c-6.4,0.3-9.5,2.7-9.5,6.8c0,3.7,2.7,5.8,6.8,5.8c3.4,0,6.1-1.5,7.6-4.1c0.2,2.6,1.5,3.8,4.3,3.8h0.8v-2H1501.4z M1489.9,83.4
	c-3,0-4.7-1.4-4.7-4c0-3.9,3.8-4.5,7.4-4.7l4.5-0.2v2.5C1496.6,80.7,1493.7,83.4,1489.9,83.4z M1506.2,60.5h2.5v-6.1h-2.5V60.5z
	 M1508.7,85V64.1h-2.5V85H1508.7z M1524.5,63.6c-3.7,0-6.3,2.2-7.6,4.7v-4.2h-2.5V85h2.5V71.3c0.7-2.6,3.3-5.6,6.9-5.6
	c3.1,0,4.9,1.6,4.9,6.2v13h2.5V71.5C1531.3,65.8,1528.7,63.6,1524.5,63.6z"/>
<path class="st0" d="M393.2,409.6l41.4,43.6l-10.9,71.9c0,0,0,0,0,0l-39.2-46.8L393.2,409.6z"/>
<path class="st0" d="M434.7,453.2l72.5-15.3l-45.2-42l-68.9,13"/>
<path class="st0" d="M423.4,525.2l69-19.1l15.3-67.9"/>
<path class="st0" d="M385.7,468.7l39.6,46.5"/>
<path class="st0" d="M467.8,401.5L398,414.6l-7.3,60.2"/>
<path class="st0" d="M454.2,397.5l45.4,42"/>
<path class="st0" d="M434.6,522.1l10.2-71"/>
<path class="st0" d="M505.5,447.6l-62.1,13.8"/>
<path class="st0" d="M1010.1,260.3l41.4,43.6l-10.9,71.9c0,0,0,0,0,0l-39.2-46.8L1010.1,260.3z"/>
<path class="st0" d="M1051.5,303.9l72.5-15.3l-45.2-41.9l-68.9,13"/>
<path class="st0" d="M1040.2,375.9l69-19.1l15.3-67.9"/>
<path class="st0" d="M1002.5,319.4l39.6,46.4"/>
<path class="st0" d="M1084.7,252.2l-69.8,13.1l-7.3,60.2"/>
<path class="st0" d="M1071.1,248.2l45.4,42"/>
<path class="st0" d="M1051.5,372.8l10.2-71.1"/>
<path class="st0" d="M1122.3,298.4l-62.1,13.8"/>
<path class="st0" d="M450.2,140.5l24.6,25.9l-6.5,42.7c0,0,0,0,0,0L445,181.3L450.2,140.5z"/>
<path class="st0" d="M474.8,166.4l43.1-9.1L491,132.4l-41,7.7"/>
<path class="st0" d="M468.1,209.2l41-11.4l9.1-40.4"/>
<path class="st0" d="M445.7,175.7l23.5,27.6"/>
<path class="st0" d="M494.5,135.7l-41.5,7.8l-4.3,35.8"/>
<path class="st0" d="M486.4,133.3l27,25"/>
<path class="st0" d="M474.8,207.4l6.1-42.2"/>
<path class="st0" d="M516.9,163.1l-36.9,8.2"/>
<path class="st0" d="M646.4,295.2l24.6,25.9l-6.5,42.7c0,0,0,0,0,0L641.2,336L646.4,295.2z"/>
<path class="st0" d="M671,321.1l43.1-9.1l-26.9-24.9l-41,7.7"/>
<path class="st0" d="M664.4,363.9l41-11.4l9.1-40.4"/>
<path class="st0" d="M641.9,330.4l23.5,27.6"/>
<path class="st0" d="M690.8,290.4l-41.5,7.8l-4.3,35.8"/>
<path class="st0" d="M682.7,288l27,25"/>
<path class="st0" d="M671,362.1l6.1-42.2"/>
<path class="st0" d="M713.1,317.8l-36.9,8.2"/>
<path class="st0" d="M664.5,559.6l33.3,35l-8.8,57.8c0,0,0,0,0,0l-31.5-37.6L664.5,559.6z"/>
<path class="st0" d="M697.8,594.6l58.2-12.3l-36.3-33.7l-55.4,10.4"/>
<path class="st0" d="M688.7,652.5l55.4-15.4l12.3-54.6"/>
<path class="st0" d="M658.4,607.1l31.8,37.3"/>
<path class="st0" d="M724.4,553.1l-56.1,10.6l-5.9,48.4"/>
<path class="st0" d="M713.5,549.9l36.4,33.8"/>
<path class="st0" d="M697.8,650l8.2-57.1"/>
<path class="st0" d="M754.7,590.2l-49.9,11.1"/>
<path class="st0" d="M1225.2,433.8l33.3,35l-8.8,57.8c0,0,0,0,0,0l-31.5-37.6L1225.2,433.8z"/>
<path class="st0" d="M1258.4,468.9l58.2-12.2l-36.3-33.7l-55.4,10.4"/>
<path class="st0" d="M1249.4,526.7l55.4-15.4l12.3-54.6"/>
<path class="st0" d="M1219.1,481.4l31.8,37.3"/>
<path class="st0" d="M1285.1,427.3l-56.1,10.5l-5.9,48.4"/>
<path class="st0" d="M1274.2,424.1l36.4,33.8"/>
<path class="st0" d="M1258.4,524.2l8.2-57.1"/>
<path class="st0" d="M1315.3,464.4l-49.8,11.1"/>
<path class="st0" d="M227,280.2l33.3,35l-8.8,57.8c0,0,0,0,0,0L220,335.3L227,280.2z"/>
<path class="st0" d="M260.3,315.2l58.2-12.3l-36.3-33.7l-55.4,10.4"/>
<path class="st0" d="M251.2,373l55.4-15.4l12.3-54.6"/>
<path class="st0" d="M220.9,327.7l31.8,37.3"/>
<path class="st0" d="M286.9,273.7l-56.1,10.6l-5.9,48.4"/>
<path class="st0" d="M276,270.4l36.4,33.8"/>
<path class="st0" d="M260.2,370.5l8.2-57.1"/>
<path class="st0" d="M317.1,310.7l-49.9,11.1"/>
<path class="st0" d="M19.4,292.2l20.8,21.9l-5.5,36.1c0,0,0,0,0,0L15,326.6L19.4,292.2z"/>
<path class="st0" d="M40.2,314.1l36.4-7.7l-22.7-21.1l-34.6,6.5"/>
<path class="st0" d="M34.5,350.2l34.6-9.6l7.7-34.1"/>
<path class="st0" d="M15.6,321.9l19.9,23.3"/>
<path class="st0" d="M56.8,288.1l-35,6.6l-3.7,30.2"/>
<path class="st0" d="M50,286.1l22.8,21.1"/>
<path class="st0" d="M40.2,348.6l5.1-35.7"/>
<path class="st0" d="M75.7,311.3l-31.1,6.9"/>
<path class="st0" d="M226.4,586.3l20.8,21.9l-5.5,36.1c0,0,0,0,0,0l-19.7-23.5L226.4,586.3z"/>
<path class="st0" d="M247.2,608.1l36.4-7.7l-22.7-21.1l-34.6,6.5"/>
<path class="st0" d="M241.6,644.3l34.6-9.6l7.7-34.1"/>
<path class="st0" d="M222.6,615.9l19.9,23.3"/>
<path class="st0" d="M263.9,582.2l-35.1,6.6l-3.7,30.2"/>
<path class="st0" d="M257.1,580.2l22.8,21.1"/>
<path class="st0" d="M247.2,642.7l5.1-35.7"/>
<path class="st0" d="M282.8,605.4l-31.2,6.9"/>
<path class="st0" d="M996.2,575l20.8,21.9l-5.5,36.1c0,0,0,0,0,0l-19.7-23.5L996.2,575z"/>
<path class="st0" d="M1017,596.9l36.4-7.7l-22.7-21.1l-34.6,6.5"/>
<path class="st0" d="M1011.3,633l34.6-9.6l7.7-34.1"/>
<path class="st0" d="M992.4,604.7l19.9,23.3"/>
<path class="st0" d="M1033.7,570.9l-35.1,6.6l-3.7,30.2"/>
<path class="st0" d="M1026.8,568.9l22.8,21.1"/>
<path class="st0" d="M1017,631.4l5.2-35.7"/>
<path class="st0" d="M1052.5,594.1l-31.2,6.9"/>
<path class="st0" d="M1514.5,489.6l20.8,21.9l-5.5,36.1c0,0,0,0,0,0l-19.7-23.5L1514.5,489.6z"/>
<path class="st0" d="M1535.3,511.5l36.4-7.7l-22.7-21.1l-34.6,6.5"/>
<path class="st0" d="M1529.6,547.6l34.6-9.6l7.7-34.1"/>
<path class="st0" d="M1510.7,519.3l19.9,23.3"/>
<path class="st0" d="M1551.9,485.5l-35.1,6.6l-3.7,30.2"/>
<path class="st0" d="M1545.1,483.5l22.8,21.1"/>
<path class="st0" d="M1535.3,546.1l5.1-35.7"/>
<path class="st0" d="M1570.8,508.7l-31.2,6.9"/>
<path class="st0" d="M1452.7,212.2l20.8,21.9l-5.5,36.1c0,0,0,0,0,0l-19.7-23.5L1452.7,212.2z"/>
<path class="st0" d="M1473.4,234.1l36.4-7.7l-22.7-21.1l-34.6,6.5"/>
<path class="st0" d="M1467.8,270.2l34.6-9.6l7.7-34.1"/>
<path class="st0" d="M1448.9,241.9l19.9,23.3"/>
<path class="st0" d="M1490.1,208.1l-35,6.6l-3.7,30.2"/>
<path class="st0" d="M1483.3,206.1l22.8,21.1"/>
<path class="st0" d="M1473.4,268.6l5.1-35.7"/>
<path class="st0" d="M1509,231.3l-31.2,6.9"/>
<path class="st0" d="M1143.4,140l20.8,21.9l-5.5,36.1c0,0,0,0,0,0l-19.7-23.5L1143.4,140z"/>
<path class="st0" d="M1164.2,161.9l36.4-7.7l-22.7-21.1l-34.6,6.5"/>
<path class="st0" d="M1158.6,198l34.6-9.6l7.7-34.1"/>
<path class="st0" d="M1139.6,169.7l19.9,23.3"/>
<path class="st0" d="M1180.9,135.9l-35,6.6l-3.7,30.2"/>
<path class="st0" d="M1174,133.9l22.8,21.1"/>
<path class="st0" d="M1164.2,196.5l5.1-35.7"/>
<path class="st0" d="M1199.8,159.1l-31.2,6.9"/>
<path class="st0" d="M810,428.9l20.8,21.9l-5.5,36.1c0,0,0,0,0,0l-19.7-23.5L810,428.9z"/>
<path class="st0" d="M830.7,450.8l36.4-7.7l-22.7-21.1l-34.8,6.2"/>
<path class="st0" d="M825.1,487l34.6-9.6l7.7-34.1"/>
<path class="st0" d="M806.2,458.6L826,482"/>
<path class="st0" d="M847.4,424.9l-35.1,6.6l-3.7,30.2"/>
<path class="st0" d="M840.6,422.9l22.8,21.1"/>
<path class="st0" d="M830.7,485.4l5.1-35.7"/>
<path class="st0" d="M866.3,448.1l-31.2,6.9"/>
<path class="st0" d="M275.3,592.8L392,487.1"/>
<path class="st0" d="M510.6,191L649,294.3"/>
<path class="st0" d="M470.3,208.6L459.9,396"/>
<path class="st0" d="M308.3,350.4l84.7,60.3"/>
<path class="st0" d="M507.1,440.6l146.2-90.1"/>
<path class="st0" d="M504.6,452.2l158.5,116.4"/>
<path class="st0" d="M703.5,353.1l103.6,97.8"/>
<path class="st0" d="M860.5,474L999,574.1"/>
<path class="st0" d="M866.3,448.1L1001.3,329"/>
<path class="st0" d="M1110.1,353.1l114.9,82.5"/>
<path class="st0" d="M1088.9,256.1l63.6-65.6"/>
<path class="st0" d="M1270.8,424.1l-85.4-233.6"/>
<path class="st0" d="M1314.8,454.7l147.7-191.2"/>
<path class="st0" d="M1312.2,478.6l199.6,31.8"/>
<path class="st0" d="M1037.1,574.1l183.4-82.4"/>
<path class="st0" d="M755.1,588.5l238.2,9.8"/>
<path class="st0" d="M74.2,318.2l146.5,11.2"/>
<g>
	<path d="M1349.1,743.1h2.6c0,4.6,3.4,7.6,8.7,7.6c4.8,0,7.5-2.2,7.5-5.9c0-3.5-2-5-8.2-6.4c-6.9-1.7-9.6-3.9-9.6-8
		c0-4.7,3.7-7.7,9.7-7.7c5.9,0,9.8,3.4,9.8,8.6h-2.5c-0.1-3.9-2.7-6.3-7.4-6.3c-4.4,0-7.1,2.1-7.1,5.2c0,3,2,4.4,8.2,6
		c6.9,1.8,9.7,3.9,9.7,8.5c0,5.2-3.6,8.3-10.2,8.3C1353.5,753,1349.1,749.1,1349.1,743.1z"/>
	<path d="M1389.9,731.2h2.5v21.3h-2.5v-4.3c-1.3,2.5-4,4.8-7.7,4.8c-4.2,0-6.9-2.3-6.9-8v-13.8h2.5v13.3c0,4.8,1.9,6.4,5,6.4
		c3.6,0,6.3-3,7-5.7V731.2z"/>
	<path d="M1417.7,741.9c0,6.2-3.3,11.1-9.3,11.1c-3.7,0-6.2-1.9-7.6-4.9v11.8h-2.5v-28.7h2.5v4.8c1.4-3.1,4.1-5.2,7.6-5.2
		C1414.4,730.7,1417.7,735.7,1417.7,741.9z M1415.1,741.9c0-5-2.4-9.1-7.2-9.1c-4.6,0-7.2,4.3-7.2,9.1c0,5,2.4,9.1,7.2,9.1
		C1412.7,750.9,1415.1,746.8,1415.1,741.9z"/>
	<path d="M1441.6,741.9c0,6.2-3.3,11.1-9.3,11.1c-3.7,0-6.2-1.9-7.6-4.9v11.8h-2.5v-28.7h2.5v4.8c1.4-3.1,4.1-5.2,7.6-5.2
		C1438.2,730.7,1441.6,735.7,1441.6,741.9z M1439,741.9c0-5-2.4-9.1-7.2-9.1c-4.6,0-7.2,4.3-7.2,9.1c0,5,2.4,9.1,7.2,9.1
		C1436.6,750.9,1439,746.8,1439,741.9z"/>
	<path d="M1446.3,752.5v-31.2h2.5v31.2H1446.3z"/>
	<path d="M1470.3,731.2h2.6l-12.2,28.7h-2.7l3.9-8.8l-8.9-19.9h2.6l7.6,17.2L1470.3,731.2z"/>
	<path d="M1505.9,752.5l-11.8-14.4l-4.1,4.2v10.2h-2.6v-29.3h2.6V739l15-15.8h3.3l-12.6,13.1l13.2,16.2H1505.9z"/>
	<path d="M1530.2,738.7v13.8h-2.5v-13.3c0-4.8-1.8-6.4-5-6.4c-3.6,0-6.3,3-7,5.7v14h-2.5v-21.3h2.5v4.3c1.3-2.5,4-4.8,7.7-4.8
		C1527.5,730.7,1530.2,733,1530.2,738.7z"/>
	<path d="M1534.3,741.9c0-6.4,3.7-11.1,10-11.1c6.3,0,10,4.7,10,11.1c0,6.4-3.9,11.1-10,11.1C1538,753,1534.3,748.3,1534.3,741.9z
		 M1551.6,741.9c0-5.2-2.4-9.1-7.4-9.1s-7.4,3.9-7.4,9.1c0,5.2,2.4,9.1,7.4,9.1S1551.6,747.1,1551.6,741.9z"/>
	<path d="M1583.6,731.2h2.6l-6.1,21.3h-3.4l-5.4-19.2l-5.4,19.2h-3.4l-6.1-21.3h2.6l5.4,19.5l5.4-19.5h3.1l5.4,19.5L1583.6,731.2z"
		/>
	<path d="M1590.4,752.5v-31.2h2.5v31.2H1590.4z"/>
	<path d="M1616.5,742.3h-16.3c0.1,4.8,2.5,8.6,7.7,8.6c4,0,5.5-2.1,6.1-4.9h2.5c-0.7,3.6-3.2,7-8.8,7c-6.6,0-10.1-4.9-10.1-11.1
		c0-6.2,3.6-11.1,9.8-11.1c6.2,0,9.1,4.8,9.1,10.3V742.3z M1600.3,740.3h13.8c-0.2-4.2-2.1-7.5-6.6-7.5
		C1603,732.8,1600.7,736,1600.3,740.3z"/>
	<path d="M1636.6,721.4h2.5v31.2h-2.5v-4.8c-1.4,3.1-4.1,5.2-7.6,5.2c-6,0-9.3-4.9-9.3-11.1c0-6.2,3.3-11.1,9.3-11.1
		c3.7,0,6.2,1.9,7.6,4.9V721.4z M1636.6,741.9c0-5-2.3-9.1-7.2-9.1s-7.2,4.1-7.2,9.1s2.4,9.1,7.2,9.1
		C1634,750.9,1636.6,746.6,1636.6,741.9z"/>
	<path d="M1660.9,731.2h2.5v18.1c0,7.3-3.2,11-10,11c-6.5,0-8.8-3.3-9.5-6.1h2.5c0.7,2,2.5,4.1,7,4.1c5.3,0,7.5-2.7,7.5-8.8V747
		c-1.4,3-4.1,5-7.7,5c-5.9,0-9.3-4.5-9.3-10.4c0-5.9,3.6-10.8,9.3-10.8c3.8,0,6.3,2,7.7,5V731.2z M1660.9,741.5
		c0-4.7-2.4-8.7-7.2-8.7c-4.7,0-7.2,4.1-7.2,8.7c0,4.7,2.5,8.4,7.2,8.4C1658.1,749.9,1660.9,746.1,1660.9,741.5z"/>
	<path d="M1686.6,742.3h-16.3c0.1,4.8,2.5,8.6,7.7,8.6c4,0,5.5-2.1,6.2-4.9h2.5c-0.7,3.6-3.2,7-8.8,7c-6.6,0-10.1-4.9-10.1-11.1
		c0-6.2,3.6-11.1,9.8-11.1c6.2,0,9.1,4.8,9.1,10.3V742.3z M1670.4,740.3h13.8c-0.2-4.2-2.1-7.5-6.6-7.5
		C1673.1,732.8,1670.8,736,1670.4,740.3z"/>
</g>
</svg>
